<svg xmlns="http://www.w3.org/2000/svg" xmlns:xlink="http://www.w3.org/1999/xlink" width="153.625" height="185.876" viewBox="0 0 153.625 185.876">
  <defs>
    <linearGradient id="linear-gradient" x1="0.048" y1="0.782" x2="1.281" y2="0.012" gradientUnits="objectBoundingBox">
      <stop offset="0" stop-color="#9b6bf9"/>
      <stop offset="1" stop-color="#4545ff"/>
    </linearGradient>
  </defs>
  <path id="Tracé_2395" data-name="Tracé 2395" d="M556.781,434.554l-37.656,62.414-18.562-30.752a20.607,20.607,0,0,0-35.329,0l-18.562,30.752-37.656-62.414a20.139,20.139,0,0,1,17.247-30.524h113.3a20.139,20.139,0,0,1,17.247,30.524Zm0,124.853-37.656-62.414-18.562,30.752a20.647,20.647,0,0,1-35.329,0l-18.562-30.752-37.656,62.414a20.12,20.12,0,0,0,17.247,30.5h113.3a20.12,20.12,0,0,0,17.247-30.5Z" transform="translate(-406.095 -404.03)" fill="url(#linear-gradient)"/>
</svg>
